<?xml version="1.0" encoding="UTF-8"?>
<svg xmlns="http://www.w3.org/2000/svg" viewBox="0 0 384 201">
  <defs>
    <style>
      .cls-1 {
        fill: #4d4d4d;
      }

      .cls-2 {
        fill: #fff;
      }

      .cls-3 {
        mix-blend-mode: soft-light;
      }

      .cls-4 {
        fill: #f3fcf5;
      }

      .cls-5 {
        letter-spacing: 0em;
      }

      .cls-6 {
        isolation: isolate;
      }

      .cls-7 {
        letter-spacing: 0em;
      }

      .cls-8 {
        letter-spacing: -.01em;
      }

      .cls-9 {
        letter-spacing: -.05em;
      }

      .cls-10 {
        font-family: MontserratRoman-Regular, Montserrat;
        font-size: 12px;
        font-variation-settings: 'wght' 400;
      }

      .cls-11 {
        fill: #e6e6e6;
      }
    </style>
  </defs>
  <g class="cls-6">
    <g id="Capa_2">
      <g id="Capa_1-2" data-name="Capa_1">
        <path class="cls-11" d="M37.24,0h309.53C367.32,0,384,16.68,384,37.24v163.76H0V37.24C0,16.68,16.68,0,37.24,0Z"/>
        <g class="cls-3">
          <path class="cls-1" d="M346.76,5c17.77,0,32.24,14.46,32.24,32.24v158.76H5V37.24C5,19.46,19.46,5,37.24,5h309.53M346.76,0H37.24C16.67,0,0,16.67,0,37.24v163.76h384V37.24c0-20.56-16.67-37.24-37.24-37.24h0Z"/>
        </g>
        <g>
          <g>
            <path d="M79.07,93.8c-4.17,0-8.35.07-12.52-.02-6.3-.13-9.72-3.49-9.79-9.79-.1-8.41-.1-16.82,0-25.23.08-6.27,3.51-9.68,9.82-9.75,8.41-.1,16.82-.1,25.23,0,6.18.08,9.62,3.5,9.69,9.68.11,8.47.11,16.95,0,25.42-.08,6.16-3.52,9.52-9.73,9.66-4.23.09-8.47.02-12.71.02ZM63.89,86.74c1.8-.46,3.34-.74,4.79-1.25,1.96-.68,3.72-.55,5.73.18,6.47,2.35,13.72-.26,17.51-6.03,3.84-5.84,3.25-13.49-1.45-18.65-4.64-5.1-12.15-6.45-18.27-3.29-6.19,3.2-9.86,10.35-7.73,16.93,1.25,3.87.94,7.19-.28,10.74-.12.34-.16.7-.3,1.36Z"/>
            <path class="cls-4" d="M63.89,86.74c.14-.66.18-1.02.3-1.36,1.22-3.55,1.53-6.88.28-10.74-2.13-6.58,1.54-13.73,7.73-16.93,6.12-3.16,13.63-1.81,18.27,3.29,4.7,5.16,5.29,12.81,1.45,18.65-3.8,5.77-11.05,8.38-17.51,6.03-2-.73-3.76-.86-5.73-.18-1.46.51-2.99.79-4.79,1.25ZM80.41,58.65c-10.01-.09-16.28,8.79-12.95,17.1.83,2.06,1.36,3.88.46,5.98-.44,1.02-.02,1.44,1.04.99,2.08-.88,3.92-.39,6.01.36,5.08,1.84,9.78.74,13.47-3.27,3.62-3.93,4.46-8.59,2.34-13.53-2.12-4.93-6.09-7.37-10.38-7.64Z"/>
            <path d="M80.41,58.65c4.29.28,8.26,2.71,10.38,7.64,2.12,4.93,1.27,9.6-2.34,13.53-3.69,4.01-8.39,5.11-13.47,3.27-2.09-.76-3.94-1.25-6.01-.36-1.05.45-1.47.03-1.04-.99.9-2.1.37-3.92-.46-5.98-3.33-8.32,2.94-17.19,12.95-17.1ZM83.12,79.07c1.85-.04,3.4-1.13,3.77-2.49.51-1.87-1.22-1.84-2.11-2.52-.19-.15-.44-.23-.66-.35-.67-.4-1.3-.47-1.76.29-1,1.63-2.14,1.26-3.42.34-1.28-.92-2.38-2-3.21-3.35-.3-.49-.66-1.08-.13-1.52,1.7-1.4.61-2.84.1-4.22-.65-1.78-2.2-2.01-3.42-.54-1.29,1.56-1.38,3.34-.57,5.09,1.35,2.94,3.29,5.45,6.03,7.22,1.68,1.08,3.5,1.9,5.37,2.07Z"/>
            <path class="cls-4" d="M83.12,79.07c-1.86-.17-3.69-.98-5.37-2.07-2.74-1.77-4.68-4.28-6.03-7.22-.81-1.76-.72-3.54.57-5.09,1.22-1.47,2.77-1.24,3.42.54.51,1.39,1.6,2.82-.1,4.22-.53.44-.18,1.03.13,1.52.83,1.35,1.92,2.43,3.21,3.35,1.28.92,2.42,1.3,3.42-.34.46-.76,1.09-.68,1.76-.29.21.13.46.2.66.35.89.68,2.62.65,2.11,2.52-.37,1.35-1.92,2.45-3.77,2.49Z"/>
          </g>
          <g>
            <path d="M153.81,93.99c-4.37,0-8.74.02-13.12,0-5.44-.03-9.13-3.69-9.15-9.11-.03-8.92-.03-17.84,0-26.76.02-5.31,3.74-9,9.06-9.02,8.92-.03,17.84-.03,26.76,0,5.33.02,9.04,3.71,9.06,9.02.04,8.98.04,17.95,0,26.93-.02,5.2-3.75,8.89-8.97,8.93-4.55.04-9.09,0-13.64,0ZM167.58,84.7c-.51-.78-.8-1.25-1.13-1.7-2.95-4.05-5.87-8.14-8.9-12.13-.85-1.12-.76-1.79.14-2.8,2.41-2.7,4.7-5.5,7.02-8.27.31-.36.55-.78.87-1.25-2-.48-3.37-.11-4.57,1.5-1.83,2.46-3.92,4.72-6.04,7.22-2.01-2.74-3.84-5.29-5.72-7.8-.33-.44-.83-1.02-1.27-1.04-2.42-.1-4.84-.05-7.69-.05,3.72,5.04,7.16,9.71,10.66,14.44-3.29,3.89-6.5,7.69-9.84,11.66,2.01.46,3.41.35,4.56-1.28,1.28-1.8,2.82-3.41,4.26-5.1.85-.99,1.71-1.97,2.66-3.06,2.2,2.97,4.22,5.75,6.3,8.49.36.47.92,1.08,1.42,1.11,2.3.12,4.62.05,7.28.05Z"/>
            <path class="cls-2" d="M167.58,84.7c-2.66,0-4.98.07-7.28-.05-.5-.03-1.06-.64-1.42-1.11-2.08-2.74-4.1-5.52-6.3-8.49-.95,1.09-1.81,2.06-2.66,3.06-1.44,1.69-2.98,3.3-4.26,5.1-1.15,1.63-2.55,1.74-4.56,1.28,3.34-3.96,6.55-7.76,9.84-11.66-3.49-4.74-6.94-9.4-10.66-14.44,2.85,0,5.28-.05,7.69.05.44.02.95.6,1.27,1.04,1.88,2.51,3.72,5.05,5.72,7.8,2.11-2.5,4.21-4.76,6.04-7.22,1.2-1.61,2.56-1.98,4.57-1.5-.32.47-.56.89-.87,1.25-2.33,2.77-4.62,5.57-7.02,8.27-.9,1.01-.98,1.68-.14,2.8,3.03,3.99,5.95,8.08,8.9,12.13.33.45.62.93,1.13,1.7ZM144.19,60.46c.44.64.78,1.16,1.15,1.66,4.67,6.33,9.42,12.62,13.99,19.03,1.23,1.73,2.56,1.76,4.46,1.37-.48-.68-.84-1.19-1.22-1.7-4.5-6.17-9.09-12.29-13.47-18.54-1.27-1.81-2.63-2.45-4.91-1.82Z"/>
            <path d="M144.19,60.46c2.28-.63,3.64,0,4.91,1.82,4.38,6.25,8.96,12.37,13.47,18.54.37.51.73,1.03,1.22,1.7-1.91.4-3.23.36-4.46-1.37-4.56-6.41-9.31-12.7-13.99-19.03-.37-.5-.71-1.03-1.15-1.66Z"/>
          </g>
          <g>
            <rect x="281.32" y="48.85" width="45" height="45" rx="13.15" ry="13.15"/>
            <path class="cls-2" d="M299.53,66.2c0-1.21,0-2.32,0-3.43.02-1.59.3-3.11,1.26-4.45,1-1.4,2.37-2.16,4.05-2.28,1.76-.13,3.52-.09,5.28-.16.71-.03,1.05.16,1.01.97-.07,1.28-.06,2.57,0,3.85.03.64-.22.79-.77.77-.77-.02-1.54-.02-2.31,0-1.15.04-1.68.55-1.79,1.69q-.28,2.92,2.63,2.92c2.15,0,2.15,0,2.01,2.17-.06.93-.2,1.85-.24,2.77-.03.62-.31.83-.9.82-1.11-.03-2.23,0-3.48,0,0,.43,0,.77,0,1.11,0,4.49-.02,8.98.02,13.47,0,.95-.32,1.23-1.22,1.2-1.45-.06-2.91-.06-4.36,0-.94.04-1.22-.32-1.21-1.23.03-4.49,0-8.98.03-13.47,0-.87-.13-1.19-1.15-1.14-2.63.13-2.08.11-2.13-2.03-.02-.9.01-1.8,0-2.69-.01-.6.21-.88.85-.85.73.04,1.47,0,2.43,0Z"/>
          </g>
          <g>
            <rect x="206.38" y="48.85" width="45" height="45" rx="13.15" ry="13.15"/>
            <g>
              <path class="cls-2" d="M228.89,89.38c-2.38,0-4.76.02-7.13,0-2.64-.03-4.98-.92-7-2.64-1.6-1.37-2.71-3.07-3.35-5.07-.4-1.26-.5-2.56-.5-3.88.02-4.56-.02-9.11.02-13.67.02-2.44.86-4.63,2.38-6.54,1.38-1.74,3.14-2.94,5.25-3.62,1.2-.39,2.43-.53,3.69-.53,4.64.01,9.29-.02,13.93.02,2.41.02,4.58.84,6.48,2.33,1.76,1.39,2.99,3.16,3.68,5.29.4,1.23.53,2.5.53,3.79-.01,4.57.03,9.13-.02,13.7-.04,3.35-1.41,6.11-3.96,8.28-1.55,1.31-3.35,2.11-5.35,2.4-.77.11-1.56.12-2.33.12-2.1.02-4.2,0-6.3,0h0ZM213.93,71.39s0,0,0,0c0,2.33,0,4.67,0,7,0,.71.08,1.4.26,2.08.96,3.51,4.11,5.91,7.76,5.92,4.64,0,9.29,0,13.93,0,.98,0,1.93-.17,2.84-.53,3.17-1.25,5.14-4.17,5.14-7.57,0-4.6,0-9.2,0-13.8,0-.77-.11-1.53-.32-2.28-.95-3.34-4.11-5.78-7.69-5.76-4.64.02-9.29,0-13.93.01-.53,0-1.06.03-1.58.14-1.71.34-3.16,1.16-4.33,2.45-1.29,1.43-2.04,3.1-2.07,5.03-.04,2.44,0,4.88,0,7.32Z"/>
              <path class="cls-2" d="M228.91,62.44c4.81-.02,8.96,3.89,8.96,8.97,0,5.04-4.02,9.01-9.01,9-5.09,0-9-4.18-8.96-9.07.04-4.91,4.06-8.9,9.01-8.89ZM222.9,71.39c0,3.3,2.67,6.01,5.94,6.01,3.35,0,6.04-2.67,6.04-6.01,0-3.23-2.69-5.94-5.87-5.97-3.39-.04-6.11,2.69-6.1,5.97Z"/>
              <path class="cls-2" d="M238.27,64.02c-1.12,0-1.99-.87-1.99-1.99,0-1.12.91-2.03,2.02-2.01,1.08.02,1.99.94,1.98,2-.01,1.11-.9,1.99-2,1.99Z"/>
            </g>
          </g>
        </g>
        <text class="cls-10" transform="translate(143.84 25.5)"><tspan class="cls-8" x="0" y="0">C</tspan><tspan class="cls-7" x="8.45" y="0">OM</tspan><tspan class="cls-9" x="29.98" y="0">P</tspan><tspan x="38.05" y="0">A</tspan><tspan class="cls-5" x="46.66" y="0">R</tspan><tspan x="55.21" y="0">TIR EN</tspan></text>
      </g>
    </g>
  </g>
</svg>