<?xml version="1.0" encoding="UTF-8"?>
<svg xmlns="http://www.w3.org/2000/svg" viewBox="0 0 384 201">
  <defs>
    <style>
      .cls-1 {
        fill: #4d4d4d;
      }

      .cls-2 {
        fill: #fff;
      }

      .cls-3 {
        mix-blend-mode: soft-light;
      }

      .cls-4 {
        fill: #f3fcf5;
      }

      .cls-5 {
        letter-spacing: 0em;
      }

      .cls-6 {
        isolation: isolate;
      }

      .cls-7 {
        letter-spacing: 0em;
      }

      .cls-8 {
        letter-spacing: -.01em;
      }

      .cls-9 {
        letter-spacing: -.05em;
      }

      .cls-10 {
        font-family: MontserratRoman-Regular, Montserrat;
        font-size: 12px;
        font-variation-settings: 'wght' 400;
      }

      .cls-11 {
        fill: #e6e6e6;
      }
    </style>
  </defs>
  <g class="cls-6">
    <g id="Capa_2">
      <g id="Capa_1-2" data-name="Capa_1">
        <path class="cls-11" d="M37.24,0h309.53C367.32,0,384,16.68,384,37.24v163.76H0V37.24C0,16.68,16.68,0,37.24,0Z"/>
        <g class="cls-3">
          <path class="cls-1" d="M346.76,5c17.77,0,32.24,14.46,32.24,32.24v158.76H5V37.24C5,19.46,19.46,5,37.24,5h309.53M346.76,0H37.24C16.67,0,0,16.67,0,37.24v163.76h384V37.24c0-20.56-16.67-37.24-37.24-37.24h0Z"/>
        </g>
        <g>
          <path d="M76.19,105.53c-6.36,0-12.73.11-19.09-.03-9.61-.2-14.81-5.31-14.93-14.92-.16-12.82-.15-25.65,0-38.47.12-9.56,5.35-14.75,14.98-14.86,12.82-.15,25.65-.15,38.47.01,9.42.12,14.66,5.34,14.78,14.76.17,12.92.16,25.84,0,38.75-.12,9.4-5.37,14.51-14.83,14.73-6.46.14-12.92.03-19.38.03ZM53.06,94.78c2.75-.7,5.09-1.13,7.31-1.9,3-1.04,5.68-.84,8.73.27,9.86,3.58,20.91-.39,26.7-9.19,5.86-8.91,4.96-20.57-2.2-28.44-7.08-7.78-18.53-9.84-27.86-5.01-9.44,4.88-15.04,15.78-11.79,25.81,1.91,5.9,1.43,10.97-.43,16.38-.18.52-.24,1.07-.46,2.08Z"/>
          <path class="cls-4" d="M53.06,94.78c.22-1,.28-1.56.46-2.08,1.86-5.42,2.33-10.49.43-16.38-3.25-10.03,2.35-20.93,11.79-25.81,9.33-4.82,20.78-2.77,27.86,5.01,7.16,7.87,8.07,19.53,2.2,28.44-5.79,8.8-16.84,12.78-26.7,9.19-3.05-1.11-5.73-1.31-8.73-.27-2.22.77-4.56,1.2-7.31,1.9ZM78.23,51.95c-15.26-.13-24.82,13.4-19.74,26.08,1.26,3.15,2.07,5.92.7,9.12-.67,1.56-.03,2.19,1.58,1.51,3.17-1.35,5.98-.6,9.17.55,7.75,2.81,14.91,1.12,20.54-4.98,5.52-5.99,6.8-13.1,3.57-20.62-3.22-7.52-9.28-11.23-15.82-11.65Z"/>
          <path d="M78.23,51.95c6.54.42,12.6,4.14,15.82,11.65,3.23,7.52,1.94,14.64-3.57,20.62-5.63,6.11-12.79,7.79-20.54,4.98-3.19-1.15-6-1.9-9.17-.55-1.61.68-2.25.05-1.58-1.51,1.37-3.21.56-5.98-.7-9.12-5.07-12.68,4.48-26.21,19.74-26.08ZM82.38,83.08c2.83-.06,5.19-1.73,5.75-3.79.78-2.86-1.86-2.81-3.21-3.85-.3-.23-.68-.35-1-.54-1.02-.61-1.98-.72-2.69.44-1.52,2.49-3.27,1.91-5.22.52-1.96-1.41-3.62-3.05-4.89-5.11-.46-.75-1-1.65-.19-2.32,2.6-2.13.93-4.33.15-6.44-.99-2.72-3.35-3.07-5.21-.83-1.97,2.38-2.1,5.09-.87,7.77,2.05,4.48,5.01,8.3,9.19,11,2.56,1.65,5.34,2.9,8.18,3.15Z"/>
          <path class="cls-4" d="M82.38,83.08c-2.84-.26-5.62-1.5-8.18-3.15-4.18-2.7-7.14-6.52-9.19-11-1.23-2.68-1.1-5.39.87-7.77,1.86-2.24,4.22-1.89,5.21.83.77,2.12,2.44,4.31-.15,6.44-.81.67-.27,1.56.19,2.32,1.27,2.05,2.93,3.7,4.89,5.11,1.95,1.4,3.69,1.98,5.22-.52.71-1.16,1.67-1.04,2.69-.44.33.19.71.31,1,.54,1.35,1.04,4,.99,3.21,3.85-.57,2.06-2.93,3.73-5.75,3.79Z"/>
        </g>
        <g>
          <path d="M152.54,105.83c-6.67,0-13.33.03-20,0-8.29-.05-13.92-5.63-13.95-13.89-.04-13.6-.05-27.2,0-40.79.03-8.09,5.7-13.72,13.82-13.75,13.6-.05,27.2-.05,40.79,0,8.12.03,13.78,5.66,13.81,13.75.05,13.69.06,27.37,0,41.06-.04,7.93-5.72,13.55-13.68,13.62-6.93.06-13.86.01-20.8.01ZM173.53,91.66c-.78-1.18-1.22-1.91-1.72-2.59-4.5-6.18-8.95-12.4-13.58-18.49-1.29-1.7-1.16-2.73.21-4.27,3.67-4.11,7.16-8.38,10.71-12.6.47-.56.83-1.19,1.33-1.91-3.05-.74-5.14-.17-6.96,2.28-2.79,3.75-5.98,7.2-9.21,11.01-3.06-4.18-5.86-8.06-8.72-11.89-.5-.66-1.27-1.55-1.94-1.58-3.69-.16-7.38-.07-11.73-.07,5.67,7.68,10.92,14.8,16.25,22.02-5.01,5.94-9.9,11.73-15,17.77,3.07.7,5.2.53,6.96-1.95,1.95-2.75,4.3-5.21,6.49-7.78,1.29-1.51,2.61-3,4.06-4.66,3.35,4.54,6.44,8.77,9.6,12.94.55.72,1.41,1.65,2.16,1.69,3.51.18,7.04.08,11.1.08Z"/>
          <path class="cls-2" d="M173.53,91.66c-4.06,0-7.59.1-11.1-.08-.76-.04-1.61-.97-2.16-1.69-3.17-4.17-6.25-8.41-9.6-12.94-1.45,1.66-2.77,3.15-4.06,4.66-2.19,2.57-4.54,5.03-6.49,7.78-1.76,2.48-3.89,2.65-6.96,1.95,5.1-6.04,9.99-11.83,15-17.77-5.33-7.22-10.58-14.34-16.25-22.02,4.35,0,8.05-.08,11.73.07.68.03,1.45.92,1.94,1.58,2.87,3.83,5.67,7.71,8.72,11.89,3.22-3.81,6.42-7.26,9.21-11.01,1.83-2.46,3.91-3.02,6.96-2.28-.49.71-.86,1.35-1.33,1.91-3.55,4.22-7.04,8.49-10.71,12.6-1.37,1.53-1.5,2.57-.21,4.27,4.63,6.09,9.07,12.31,13.58,18.49.5.68.94,1.41,1.72,2.59ZM137.87,54.7c.67.97,1.19,1.77,1.75,2.53,7.13,9.66,14.36,19.24,21.32,29.02,1.88,2.64,3.9,2.69,6.8,2.08-.74-1.03-1.29-1.82-1.85-2.59-6.87-9.41-13.85-18.73-20.54-28.27-1.93-2.76-4.01-3.74-7.49-2.77Z"/>
          <path d="M137.87,54.7c3.48-.97,5.55.01,7.49,2.77,6.68,9.54,13.67,18.86,20.54,28.27.57.78,1.12,1.56,1.85,2.59-2.91.61-4.93.55-6.8-2.08-6.96-9.78-14.2-19.36-21.32-29.02-.56-.77-1.08-1.57-1.75-2.53Z"/>
        </g>
        <g>
          <rect x="271.73" y="37" width="68.62" height="68.62" rx="13.15" ry="13.15"/>
          <path class="cls-2" d="M299.49,63.46c0-1.84-.01-3.54,0-5.23.03-2.43.46-4.74,1.92-6.79,1.52-2.14,3.62-3.29,6.17-3.47,2.68-.19,5.37-.14,8.05-.24,1.08-.04,1.61.25,1.54,1.48-.1,1.95-.09,3.91,0,5.87.05.97-.33,1.2-1.17,1.18-1.17-.03-2.35-.03-3.52,0-1.76.06-2.57.84-2.73,2.58q-.42,4.45,4,4.45c3.27,0,3.29,0,3.07,3.31-.09,1.41-.3,2.82-.36,4.23-.04.95-.47,1.27-1.38,1.25-1.7-.04-3.4-.01-5.3-.01,0,.65,0,1.17,0,1.69,0,6.84-.04,13.69.03,20.53.01,1.45-.49,1.88-1.87,1.82-2.21-.09-4.43-.09-6.64,0-1.43.06-1.86-.49-1.85-1.88.05-6.85,0-13.69.05-20.54,0-1.33-.2-1.81-1.76-1.74-4.02.19-3.18.17-3.25-3.1-.03-1.37.02-2.74,0-4.11-.02-.92.32-1.35,1.3-1.3,1.12.06,2.25.01,3.7.01Z"/>
        </g>
        <g>
          <rect x="195.09" y="37" width="68.62" height="68.62" rx="13.15" ry="13.15"/>
          <g>
            <path class="cls-2" d="M229.4,98.8c-3.63,0-7.25.03-10.88,0-4.03-.05-7.6-1.4-10.67-4.02-2.45-2.08-4.13-4.67-5.11-7.73-.61-1.92-.77-3.9-.76-5.91.02-6.95-.03-13.89.03-20.84.03-3.72,1.31-7.05,3.63-9.97,2.11-2.65,4.78-4.48,8-5.52,1.82-.59,3.7-.81,5.62-.8,7.08.02,14.16-.03,21.24.03,3.68.03,6.98,1.28,9.88,3.56,2.69,2.12,4.56,4.81,5.62,8.07.61,1.88.81,3.81.8,5.78-.02,6.96.05,13.92-.03,20.88-.06,5.11-2.15,9.32-6.04,12.63-2.36,2-5.11,3.22-8.16,3.67-1.17.17-2.37.18-3.56.19-3.2.02-6.4,0-9.61,0h0ZM206.6,71.38s0,0-.01,0c0,3.56,0,7.12,0,10.68,0,1.08.12,2.13.4,3.17,1.46,5.35,6.26,9.02,11.84,9.02,7.08,0,14.16,0,21.24,0,1.49,0,2.94-.26,4.33-.81,4.83-1.91,7.84-6.35,7.84-11.55,0-7.01,0-14.03,0-21.04,0-1.18-.17-2.33-.49-3.48-1.45-5.09-6.27-8.81-11.73-8.78-7.08.04-14.16,0-21.24.02-.8,0-1.62.05-2.4.21-2.6.52-4.82,1.76-6.61,3.74-1.97,2.17-3.1,4.72-3.15,7.67-.06,3.72-.01,7.44-.01,11.15Z"/>
            <path class="cls-2" d="M229.44,57.72c7.34-.04,13.66,5.93,13.66,13.67,0,7.68-6.12,13.73-13.74,13.72-7.76-.01-13.73-6.37-13.66-13.84.07-7.49,6.18-13.56,13.74-13.55ZM220.27,71.38c0,5.04,4.07,9.16,9.05,9.16,5.11,0,9.21-4.07,9.21-9.16,0-4.93-4.1-9.06-8.95-9.11-5.17-.05-9.31,4.1-9.3,9.11Z"/>
            <path class="cls-2" d="M243.71,60.14c-1.7,0-3.04-1.33-3.04-3.03,0-1.7,1.39-3.09,3.07-3.06,1.65.03,3.04,1.43,3.02,3.05-.02,1.69-1.37,3.04-3.06,3.04Z"/>
          </g>
        </g>
        <text class="cls-10" transform="translate(143.84 25.5)"><tspan class="cls-8" x="0" y="0">C</tspan><tspan class="cls-7" x="8.45" y="0">OM</tspan><tspan class="cls-9" x="29.98" y="0">P</tspan><tspan x="38.05" y="0">A</tspan><tspan class="cls-5" x="46.66" y="0">R</tspan><tspan x="55.21" y="0">TIR EN</tspan></text>
      </g>
    </g>
  </g>
</svg>